<?xml version="1.0" encoding="utf-8"?>
<!-- Generator: Adobe Illustrator 24.0.2, SVG Export Plug-In . SVG Version: 6.00 Build 0)  -->
<svg version="1.1" id="Layer_1" xmlns="http://www.w3.org/2000/svg" xmlns:xlink="http://www.w3.org/1999/xlink" x="0px" y="0px"
	 viewBox="0 0 1024 1024" style="enable-background:new 0 0 1024 1024;" xml:space="preserve">
<style type="text/css">
	.st0{fill:#006D32;}
	.st1{fill:#2DAB66;}
	.st2{fill:none;stroke:#1D1D1B;stroke-width:0.4895;stroke-miterlimit:10;}
	.st3{fill:#008D36;}
</style>
<g>
	<g>
		<path class="st0" d="M610.1,116.1c18.7-2.8,37.8-4.3,57.2-4.3c115.3,0,218.3,52,287.4,133.7c-89.9-146.8-251.3-245-436-245
			c-125.4,0-240.3,45.1-329.3,120"/>
		<path class="st1" d="M485.7,817.6c53.8,29.7,115.7,46.6,181.5,46.6c159,0,294.6-98.7,349.7-238.1
			c-51.9,227.6-255.1,397.5-498.4,397.5c-242.8,0-446.2-169.2-498.5-396.1"/>
		<path class="st2" d="M20.1,627.4"/>
		<path class="st3" d="M20.1,627.4C11.5,590.3,7,551.7,7,512c0-157.1,70.8-297.7,182.3-391.6c0,0,172.2-108.2,420.7-4.4l0,0
			c-180.6,27.6-319,183.6-319,371.9c0,141.9,78.6,265.5,194.7,329.6l5.3,2.8l-15.2,4.4C173.4,863.9,20.1,627.4,20.1,627.4"/>
	</g>
	<g>
		<path class="st0" d="M531.2,759.4V475.7H419v-76.4h325.1v76.4H616.7v283.8H531.2z"/>
		<path class="st0" d="M732.4,253.5H420.2v71.1h312.1c52.7,0,95.5,42.9,95.5,95.5v9c0,52.5-62.2,114.7-114.7,114.7
			c-13.6,0-25.9,7.7-31.9,19.9c-6,12.2-4.5,26.7,3.8,37.4L808,759.4h87.6L881,737.6L775.3,601.4C843.1,572.2,899,500.1,899,429.1v-9
			C899,328.2,824.2,253.5,732.4,253.5z"/>
	</g>
</g>
</svg>
